<?xml version="1.0" encoding="utf-8"?>
<!-- Generator: Adobe Illustrator 15.0.0, SVG Export Plug-In . SVG Version: 6.00 Build 0)  -->
<!DOCTYPE svg PUBLIC "-//W3C//DTD SVG 1.1//EN" "http://www.w3.org/Graphics/SVG/1.1/DTD/svg11.dtd">
<svg version="1.1" id="レイヤー_1" xmlns="http://www.w3.org/2000/svg" xmlns:xlink="http://www.w3.org/1999/xlink" x="0px"
	 y="0px" width="242.979px" height="68.689px" viewBox="-1.5 -1.5 242.979 68.689"
	 enable-background="new -1.5 -1.5 242.979 68.689" xml:space="preserve">
<title>HONDA LOGICOM</title>
<g>
	<path fill="#FFFFFF" d="M240.467,60.225c-0.045-0.024-0.095-0.048-0.147-0.073c-0.028-0.014-0.062-0.028-0.062-0.016
		c-0.001-0.002-0.148-0.219-0.148-0.996v-22c0-0.034-0.001-0.067-0.004-0.102c-0.159-2.358-1.497-3.198-2.695-3.198h-6.62
		c-0.769,0-1.413,0.466-1.605,1.16c-0.155,0.562-0.019,1.345,0.831,1.854c0.248,0.149,0.488,0.207,0.681,0.254
		c0.001,0,0.003,0.001,0.004,0.001c-0.02,0.094-0.054,0.22-0.111,0.381l-3.222,8.928l-0.626-9.385
		c0.009-0.943-0.335-1.844-0.973-2.543c-0.034-0.039-0.071-0.075-0.11-0.11c-0.441-0.394-1.011-0.61-1.617-0.61
		c-0.001,0-0.001,0-0.001,0h-6c-0.754,0-1.392,0.475-1.587,1.18c-0.195,0.709,0.113,1.447,0.784,1.848
		c0.239,0.14,0.469,0.195,0.653,0.24c0,0,0,0,0.001,0c-0.019,0.099-0.052,0.232-0.111,0.409l-2.021,5.936
		c0.395-1.771-0.223-4.044-1.613-5.849c-1.847-2.395-4.771-3.714-8.236-3.714c-6.306,0-12.279,3.894-13.602,8.871
		c-0.589,2.251-1.385,5.263-2.026,7.693l-0.731,2.771c-0.229,0.857-0.263,1.765-0.134,2.668c-0.195-0.239-0.462-0.423-0.783-0.506
		c-0.693-0.176-1.395,0.156-1.708,0.766c-0.229,0.027-0.588,0.027-0.826,0.027h-7.09c-0.314,0-0.703-0.068-0.851-0.26
		c-0.157-0.206-0.23-0.781,0.039-1.779c0.602-2.229,1.394-5.218,2.013-7.554c0.431-1.624,0.777-2.931,0.916-3.443
		c0.218-0.802,1.592-2.144,2.193-2.144h6.18c2.203,0,2.727-1.996,2.962-2.896c0.21-0.915,0.407-1.654,0.604-2.26
		c0.149-0.457,0.07-0.957-0.212-1.346s-0.733-0.619-1.214-0.619h-9.371c-2.9,0-5.988,2.078-7.624,4.872l0.703-2.658
		c0.181-0.744-0.059-1.253-0.291-1.548c-0.331-0.422-0.815-0.636-1.438-0.636h-6.19c-0.729,0-1.335,0.428-1.561,1.064
		c-0.052-0.161-0.122-0.317-0.228-0.456c-0.284-0.371-0.725-0.589-1.191-0.589h-11.2c-3.622,0-7.533,3.232-8.539,7.055l-0.138,0.517
		c-0.177-1.325-0.757-2.725-1.678-3.919c-1.845-2.394-4.766-3.712-8.226-3.712c-6.417,0-12.268,3.812-13.61,8.866l-2.771,10.472
		c-0.553,2.097-0.003,4.49,1.471,6.402c1.868,2.425,4.848,3.76,8.391,3.76c5.622,0,11.513-3.522,13.144-7.704
		c0.101,1.768,0.656,3.707,1.811,5.208c1.265,1.646,3.044,2.516,5.146,2.516h7.66c1.804,0,4.112-0.801,5.598-4.262l-0.535,2.019
		c-0.204,0.75,0.028,1.269,0.26,1.571c0.499,0.652,1.22,0.652,1.457,0.652h6.19c0.839,0,1.533-0.617,1.614-1.436
		c0.073-0.74-0.366-1.396-1.069-1.646c-0.145-0.062-0.279-0.098-0.396-0.13c-0.001,0-0.003-0.001-0.004-0.001
		c0.007-0.11,0.03-0.28,0.095-0.523l1.183-4.472c0.024,1.884,0.566,4.03,1.821,5.662c1.265,1.646,3.044,2.516,5.146,2.516h8.83
		c0.569,0,1.952-0.203,2.491-2.08c0.523-1.799,1.04-3.737,1.11-4.005c0.003-0.011,0.006-0.021,0.009-0.032
		c0.001-0.006,0.003-0.013,0.004-0.02l0.001,0.001c0.002-0.006,0.001-0.012,0.003-0.018c0.28,0.855,0.71,1.684,1.289,2.438
		c1.865,2.429,4.847,3.766,8.394,3.766c4.216,0,8.577-1.984,11.188-4.737l-0.834,2.45c-0.207,0.751,0.025,1.27,0.257,1.573
		c0.498,0.654,1.222,0.654,1.46,0.654h6.369c0.736,0,1.369-0.461,1.573-1.146c0.206-0.691-0.075-1.431-0.741-1.865
		c-0.246-0.15-0.485-0.211-0.677-0.26c-0.002-0.001-0.005-0.001-0.008-0.002c0.018-0.099,0.051-0.234,0.112-0.414l2.865-8.41
		l0.679,10.731c0.05,0.79,0.705,1.405,1.497,1.405h3.789c0.633,0,1.198-0.397,1.412-0.993l4.028-11.216V61.46
		c0,1.117,0.695,1.84,1.771,1.84h5.719c0.796,0,1.468-0.556,1.598-1.32C241.581,61.243,241.179,60.542,240.467,60.225z
		 M129.398,55.584l-0.209-0.004c-0.887,0-1.498-0.235-1.869-0.718c-0.526-0.686-0.55-1.835-0.399-2.399l2.189-8.289
		c0.34-1.283,1.761-2.654,4.729-2.654c0.042,0,0.085-0.002,0.127-0.005c0.057-0.005,0.113-0.008,0.169-0.008
		c1.002,0,1.854,0.784,1.939,1.782c0.012,0.139,0.01,0.276-0.008,0.411l-0.496,1.879c-0.604,2.29-1.473,5.58-1.772,6.694
		C133.236,54.223,131.426,55.584,129.398,55.584z M164.234,45.534c-0.496-0.659-1.281-0.994-2.41-0.994c-0.001,0-0.003,0-0.004,0
		h-7.12c-1.307,0-2.37,1.063-2.37,2.37v2.229c0,1.307,1.063,2.37,2.37,2.37h1.137l-0.957,3.638c-0.019,0.068-0.031,0.138-0.04,0.208
		c-0.054,0.468-0.446,0.82-0.997,0.82c-0.003,0-0.006,0-0.009,0c-0.045-0.004-0.089-0.006-0.134-0.006H150
		c-0.591,0-0.78-0.163-0.834-0.232c-0.159-0.205-0.232-0.791,0.034-1.813l2.917-10.991c0.218-0.802,1.592-2.144,2.193-2.144h8
		c2.201,0,2.727-1.995,2.948-2.84l0.596-2.234c0.117,0.341,0.364,0.677,0.803,0.94c0.233,0.14,0.451,0.197,0.627,0.244
		c-0.007,0.109-0.03,0.276-0.094,0.516l-2.489,9.392C164.698,46.515,164.586,46.001,164.234,45.534z M200.642,55.583l-0.202-0.003
		c-0.887,0-1.498-0.235-1.869-0.718c-0.526-0.686-0.55-1.835-0.399-2.399l2.189-8.289c0.34-1.283,1.758-2.654,4.72-2.654
		c0.044,0,0.088-0.002,0.132-0.006c0.059-0.005,0.117-0.008,0.175-0.008c0.999,0,1.852,0.782,1.939,1.776
		c0.012,0.138,0.009,0.278-0.009,0.419l-0.514,1.94c-0.607,2.29-1.467,5.535-1.754,6.63
		C204.484,54.222,202.672,55.583,200.642,55.583z"/>
	<path fill="#FFFFFF" d="M48.48-1.5C20.921-1.5-1.5,13.905-1.5,32.84c0,18.94,22.421,34.35,49.98,34.35
		c27.581,0,50.02-15.409,50.02-34.35C98.5,13.905,76.061-1.5,48.48-1.5z M26.55,31.237l2.374,2.084L24.803,46.7h-9.001l10.166-33
		h9.001l-3.597,11.675l-4.729,3.532c-0.362,0.271-0.583,0.69-0.602,1.143C26.023,30.502,26.21,30.938,26.55,31.237z M41.652,34.767
		l5.136-3.835c0.362-0.271,0.583-0.69,0.602-1.143c0.018-0.452-0.169-0.888-0.509-1.187l-2.619-2.299L48.147,13.7h9.001l-10.166,33
		h-9.01L41.652,34.767z M64.173,42.651c0.283,0.384,0.731,0.609,1.207,0.609h15.611L79.97,46.7H53.292l10.166-33h9.001
		l-8.512,27.618C63.806,41.774,63.89,42.268,64.173,42.651z"/>
	<path fill="#FFFFFF" d="M110.44,31.9h6.19c0.822,0,1.505-0.57,1.624-1.356c0.11-0.725-0.294-1.416-0.975-1.705
		c-0.171-0.08-0.33-0.122-0.463-0.157c0.007-0.11,0.031-0.279,0.094-0.519l2.245-8.493h6.086l-2.662,10.057
		c-0.199,0.753,0.037,1.271,0.27,1.573c0.332,0.431,0.82,0.65,1.451,0.65h6.19c0.735,0,1.368-0.459,1.575-1.143
		c0.208-0.688-0.07-1.43-0.77-1.893c-0.227-0.132-0.438-0.188-0.61-0.233c0.008-0.11,0.031-0.278,0.095-0.518l1.029-3.89
		c0.171,1.351,0.722,2.7,1.622,3.869c1.867,2.423,4.847,3.758,8.389,3.758h0.05c4.914,0,10.037-2.701,12.339-6.178l-0.989,3.966
		c-0.199,0.753,0.037,1.271,0.27,1.574c0.332,0.431,0.82,0.649,1.45,0.649h6.19c0.736,0,1.37-0.46,1.576-1.145
		c0.208-0.69-0.072-1.432-0.698-1.846c-0.04-0.027-0.081-0.051-0.124-0.074c-0.13-0.069-0.255-0.115-0.363-0.149
		c0.013-0.13,0.043-0.323,0.114-0.595l2.111-8.477l3.147,8.964c0.486,1.236,1.574,3.311,3.396,3.311h2.61
		c0.557,0,1.044-0.313,1.303-0.782c0.027,0.044,0.055,0.095,0.083,0.133c0.33,0.431,0.816,0.649,1.444,0.649h11.64
		c2.067,0,4.118-0.99,5.947-2.63l-0.034,0.061c-0.234,0.391-0.301,0.849-0.188,1.29s0.39,0.812,0.798,1.054
		c0.259,0.148,0.552,0.227,0.849,0.227c0.023,0,0.05,0,0.077-0.002h5.951c0.631,0,1.261-0.419,1.476-1.012
		c0.14-0.382,0.243-1.129-0.61-1.859c0.047-0.125,0.122-0.293,0.243-0.513l1.819-3.235h5.803v5.12c0,0.829,0.672,1.5,1.5,1.5h6.08
		c0.62,0,1.241-0.405,1.465-0.983c0.145-0.374,0.265-1.112-0.564-1.865c-0.078-0.071-0.164-0.134-0.256-0.188
		c-0.098-0.057-0.221-0.113-0.438-0.197c-0.041-0.1-0.122-0.37-0.127-0.949l-0.18-23.84c-0.006-0.824-0.676-1.489-1.5-1.489H207.1
		c-0.716,0-1.326,0.418-1.554,1.066c-0.23,0.653-0.009,1.373,0.564,1.833c0.14,0.112,0.298,0.194,0.466,0.246
		c-0.037,0.074-0.081,0.158-0.136,0.252l-7.173,12.834c0.388-1.65,0.603-3.363,0.603-5.082c0-7.399-2.914-11.15-8.66-11.15h-10.681
		c-0.422,0-0.797,0.161-1.09,0.416c-0.354-0.269-0.798-0.416-1.289-0.416h-5.66c-0.771,0-1.4,0.447-1.601,1.138
		c-0.16,0.553-0.035,1.332,0.799,1.86c0.24,0.152,0.477,0.217,0.649,0.264c0.002,0,0.004,0,0.005,0.001
		c-0.008,0.116-0.033,0.299-0.104,0.572l-1.729,7.553l-2.826-8.093c-0.599-1.503-1.673-3.295-3.394-3.295h-4.59
		c-0.733,0-1.347,0.432-1.562,1.101c-0.22,0.677,0.041,1.406,0.663,1.855c0.032,0.023,0.064,0.044,0.098,0.065
		c0.103,0.062,0.2,0.108,0.302,0.148c-0.014,0.141-0.048,0.35-0.126,0.647l-0.855,3.433c-0.234-1.186-0.777-2.411-1.598-3.479
		c-1.867-2.432-4.812-3.771-8.291-3.771c-5.173,0-9.976,2.487-12.345,6.106l1.014-3.83c0.201-0.753-0.033-1.272-0.266-1.575
		c-0.333-0.433-0.821-0.652-1.454-0.652h-6.189c-0.718,0-1.351,0.48-1.541,1.168c-0.196,0.713,0.113,1.457,0.76,1.843
		c0.234,0.143,0.455,0.203,0.633,0.251c0.001,0,0.002,0.001,0.003,0.001c-0.007,0.109-0.029,0.276-0.093,0.515l-1.7,6.282h-6.095
		l2.034-7.887c0.199-0.755-0.035-1.273-0.268-1.575c-0.499-0.648-1.217-0.648-1.453-0.648h-6.19c-0.771,0-1.4,0.447-1.601,1.138
		c-0.16,0.553-0.035,1.332,0.799,1.861c0.24,0.152,0.477,0.217,0.649,0.264c0.002,0,0.004,0.001,0.006,0.001
		c-0.007,0.109-0.03,0.279-0.094,0.522l-6.22,23.5c-0.199,0.753,0.037,1.271,0.269,1.573C109.321,31.681,109.809,31.9,110.44,31.9z
		 M207.8,17.87l1.6-2.856l0.02,2.856H207.8z M191,9.5c0.593,0,1.98,0,1.98,4.38c0,6.539-4.124,10.71-6.28,10.71h-3.549l4.004-15.09
		H191z M180.337,5.654c-0.008,0.11-0.032,0.28-0.098,0.522l-1.995,7.538l1.855-8.132c0.082,0.027,0.164,0.052,0.234,0.071
		C180.335,5.653,180.336,5.654,180.337,5.654z M143.117,24.164l-0.213-0.004c-0.896-0.002-1.518-0.249-1.901-0.752
		c-0.494-0.648-0.539-1.58-0.474-2.113c0.041-0.086,0.075-0.177,0.101-0.272l0.505-1.904c0.545-2.052,1.314-4.952,1.687-6.381
		c0.334-1.28,1.751-2.647,4.729-2.647c0.045,0,0.09-0.002,0.134-0.006c1.076-0.094,2.013,0.709,2.106,1.758
		c0.014,0.146,0.01,0.294-0.011,0.44l-0.815,3.084c-0.559,2.113-1.206,4.562-1.455,5.488
		C146.948,22.803,145.143,24.164,143.117,24.164z"/>
	<path fill="#FFFFFF" d="M117.1,55.371c-0.691-0.187-1.403,0.145-1.721,0.757c-0.242,0.036-0.642,0.04-0.869,0.042h-5.129
		l5.347-20.146c0.181-0.744-0.058-1.253-0.29-1.548c-0.332-0.422-0.815-0.636-1.438-0.636h-6.21c-0.768,0-1.413,0.466-1.605,1.16
		c-0.155,0.562-0.018,1.345,0.831,1.854c0.233,0.141,0.461,0.2,0.628,0.245c-0.007,0.109-0.03,0.276-0.093,0.514l-6.257,23.48
		c-0.206,0.751,0.027,1.27,0.258,1.573c0.33,0.433,0.817,0.652,1.448,0.652h12.59c0.555,0,1.904-0.203,2.44-2.08
		c0.544-1.867,1.089-3.884,1.126-4.022c0-0.002,0.001-0.005,0.002-0.007C118.374,56.41,117.899,55.587,117.1,55.371z"/>
</g>
<path fill="#0132B3" d="M48.48,0C21.71,0,0,14.71,0,32.84s21.71,32.85,48.48,32.85S97,51,97,32.84S75.26,0,48.48,0z M13.77,48.2
	l11.09-36H37l-11.09,36H13.77z M48.09,48.2H35.94l11.1-36h12.14L48.09,48.2z M81.09,48.2H51.26l11.09-36h12.14l-9.11,29.56H83
	L81.09,48.2z M141.87,30.4c5.36,0,10.94-3.56,11.94-7.319c1-3.761,2.279-8.86,2.939-11.33c0.66-2.471-1.75-7.86-8.42-7.86
	c-6.07,0-11.08,3.73-12.15,7.76l-2.77,10.46c-0.92,3.49,2.08,8.29,8.41,8.29H141.87z M139.18,20.64c0.37-1.4,1.67-6.28,2.19-8.28
	s2.569-3.77,6.18-3.77c1.893-0.17,3.564,1.226,3.734,3.118c0.026,0.294,0.015,0.591-0.034,0.882c-0.41,1.54-1.88,7.12-2.3,8.68
	c-0.771,2.679-3.265,4.489-6.05,4.391C139,25.65,138.76,22,139.13,20.64H139.18z M134.67,35.3c-6.07,0-11.09,3.72-12.16,7.75
	l-2.77,10.47c-0.92,3.49,2.09,8.28,8.411,8.28c5.369,0,10.949-3.561,11.939-7.32s2.29-8.859,2.939-11.33
	C143.68,40.68,141.37,35.3,134.67,35.3z M137.54,44c-0.41,1.55-1.88,7.13-2.3,8.689c-0.773,2.677-3.266,4.485-6.051,4.391
	c-3.899,0-4.09-3.61-3.719-5l2.189-8.29c0.529-2,2.57-3.771,6.18-3.771c1.898-0.161,3.568,1.246,3.73,3.145
	C137.594,43.444,137.584,43.724,137.54,44z M214.279,43.17c0.65-2.47-1.659-7.851-8.369-7.851c-6.061,0-11.08,3.721-12.15,7.75
	c-0.85,3.25-2.13,8.08-2.76,10.471c-0.93,3.489,2.08,8.279,8.4,8.279c5.359,0,10.949-3.56,11.939-7.319
	c0.99-3.761,2.28-8.88,2.939-11.351V43.17z M208.79,44c-0.41,1.55-1.89,7.13-2.3,8.689c-0.775,2.675-3.268,4.482-6.051,4.391
	c-3.899,0-4.09-3.61-3.719-5l2.189-8.29c0.529-2,2.57-3.771,6.17-3.771c1.898-0.167,3.572,1.235,3.74,3.134
	C208.845,43.436,208.834,43.72,208.79,44z M162.92,48.43c-0.24,0.93-1.42,5.38-2.189,8.28c-0.771,2.899-2.221,5.109-4.82,5.109
	h-7.66c-4.859,0-6-5.81-5.279-8.52l3.189-12c0.9-3.42,4.34-5.94,7.09-5.94h11.2c-0.22,0.811-0.44,1.66-0.64,2.4
	c-0.371,1.41-0.781,1.729-1.5,1.729h-8c-1.471,0-3.301,2-3.641,3.25l-2.92,11c-1,3.841,1.609,3.931,2.25,3.931h3.7
	c1.312,0.117,2.478-0.832,2.63-2.141l1.24-4.71l0,0c0.16-0.6-0.08-0.81-0.53-0.81h-2.34c-0.48,0-0.87-0.39-0.87-0.87V46.91
	c0-0.48,0.39-0.87,0.87-0.87h7.12c1.959-0.04,1.35,1.439,1.1,2.37V48.43z M191,37.7c-0.37,1.409-0.779,1.729-1.5,1.729h-6.18
	c-1.471,0-3.301,2-3.641,3.25s-1.91,7.22-2.93,11s1.62,3.93,2.26,3.93h7.09c0.95,0,1.95,0,2.16-0.84c0,0-0.55,2.08-1.109,4
	c-0.101,0.351-0.32,1-1.051,1h-8.83c-4.859,0-6-5.81-5.279-8.52c0.529-2,2.279-8.61,3.18-12c0.9-3.391,4.35-5.94,7.1-5.94h9.371
	C191.38,36.11,191.16,37,191,37.7z M116.71,56.82c0,0-0.56,2.08-1.12,4c-0.1,0.351-0.32,1-1,1H102c-0.19,0-0.35,0-0.26-0.33l0,0
	L108,38l0,0c0.62-2.351-0.91-2.25-1.21-2.431c-0.3-0.18-0.11-0.229,0-0.229H113c0.19,0,0.35,0,0.27,0.33l0,0l-5.84,22h7.08
	C115.49,57.66,116.49,57.64,116.71,56.82z M116.63,30.4h-6.19c-0.19,0-0.36,0-0.27-0.34l0,0l6.22-23.5l0,0
	c0.62-2.35-0.91-2.25-1.21-2.439c-0.3-0.19-0.11-0.23,0-0.23h6.19c0.2,0,0.36,0,0.271,0.34l0,0L119.12,14h9.18l2-7.391l0,0
	c0.62-2.35-0.899-2.25-1.21-2.439c-0.15-0.09-0.109-0.23,0-0.23h6.189c0.191,0,0.361,0,0.271,0.34l0,0l-6.22,23.5l0,0
	c-0.62,2.351,0.9,2.25,1.21,2.431c0.149,0.1,0.11,0.24-0.05,0.24h-6.19c-0.19,0-0.36,0-0.271-0.341l0,0l3.16-11.939H118l-2.54,9.609
	l0,0c-0.62,2.351,0.9,2.25,1.21,2.431C116.83,30.26,116.79,30.4,116.63,30.4z M168.88,61.8h-6.19c-0.199,0-0.359,0-0.27-0.33l0,0
	L168.641,38l0,0c0.619-2.351-0.91-2.25-1.211-2.431c-0.3-0.18-0.109-0.229,0-0.229h6.19c0.19,0,0.351,0,0.271,0.33l0,0l-6.221,23.51
	l0,0c-0.62,2.35,0.9,2.25,1.21,2.44C169.08,61.66,169,61.8,168.88,61.8z M159.7,3.89h4.59c0.899,0,1.67,1.521,2,2.35l0,0l4,11.461
	c0.26,0.81,0.61,0.819,0.86,0l0,0L173.7,6.56c0.62-2.35-0.91-2.25-1.21-2.439c-0.301-0.19-0.11-0.23,0-0.23h5.66
	c0.72,0,0.629,0.74,0.55,1.08l-5.8,25.43h-2.61c-0.899,0-1.67-1.52-2-2.359l0,0l-4.42-12.59l0,0c-0.24-0.7-0.5-0.671-0.63,0l0,0
	L160.18,27.74l0,0c-0.619,2.351,0.66,2.25,1,2.431c0.15,0.1,0.11,0.24-0.05,0.24h-6.19c-0.189,0-0.359,0-0.27-0.341l0,0l5.859-23.5
	l0,0c0.621-2.35-0.539-2.25-0.85-2.439C159.5,4,159.54,3.89,159.7,3.89z M180.48,4.12c0.31,0.189,1.84,0.09,1.209,2.439l0,0
	l-6.219,23.5l0,0c-0.091,0.34,0.069,0.34,0.26,0.34h11.64c5.489,0,11-8.439,11-16.859c0-7.221-2.78-9.65-7.16-9.65h-10.681
	C180.37,3.89,180.34,4,180.48,4.12z M186,8h5c2.641,0,3.48,2.43,3.48,5.88c0,7.28-4.711,12.21-7.78,12.21h-5.5l3-11.271l0.71-2.689
	l0,0L186,8z M207.07,4.08c0.31,0.189,2,0.13,0.68,2.439l0,0L194.57,30.1l0,0c-0.057,0.095-0.025,0.218,0.07,0.274
	c0.039,0.022,0.084,0.032,0.129,0.025h6c0.16,0,0-0.14-0.119-0.239c-0.121-0.101-1.221-0.311-0.08-2.381l2.25-4H211v6.62h6.08
	c0.16,0,0-0.14-0.109-0.239c-0.311-0.181-1.291-0.16-1.311-2.431l-0.18-23.84H207.1c-0.16,0-0.199,0.11-0.05,0.23L207.07,4.08z
	 M205.24,19.37l4.91-8.771l0,0c0.31-0.55,0.709-0.74,0.72,0.09l0.06,8.681H205.24z M239.859,61.8h-5.719c-0.19,0-0.271,0-0.271-0.34
	V43.73c0-0.54-0.25-0.569-0.45,0l-6.49,18.07h-3.789l-1-15.8c-0.091-1-0.601-1-1,0l0,0l-4.461,13.09l0,0
	c-0.8,2.35,0.9,2.25,1.211,2.439c0.139,0.091,0.109,0.23-0.051,0.23h-6.369c-0.201,0-0.361,0-0.271-0.33l0,0l8-23.5l0,0
	c0.8-2.35-0.9-2.25-1.21-2.43c-0.15-0.09-0.11-0.23,0.05-0.23h6c0.228-0.004,0.449,0.078,0.62,0.23
	c0.39,0.428,0.598,0.991,0.58,1.569l0,0l1,15c0,0.45,0.52,0.391,0.68,0l0,0L232,38l0,0c0.84-2.351-0.91-2.25-1.21-2.431
	c-0.3-0.18-0.11-0.229,0-0.229h6.62c0.689,0,1.119,0.62,1.199,1.8v22c0,2.13,0.9,2.25,1.211,2.44
	C240.05,61.66,240,61.8,239.859,61.8z"/>
<polygon fill="#37C8E3" points="35.74,37.31 27.54,30.11 37.69,22.53 45.89,29.73 "/>
</svg>
